<?xml version="1.0" encoding="utf-8"?>
<!-- Generator: Adobe Illustrator 23.0.1, SVG Export Plug-In . SVG Version: 6.00 Build 0)  -->
<svg version="1.1" id="Layer_1" xmlns="http://www.w3.org/2000/svg" xmlns:xlink="http://www.w3.org/1999/xlink" x="0px" y="0px"
	 viewBox="0 0 59 24" style="enable-background:new 0 0 59 24;" xml:space="preserve">
<style type="text/css">
	.st0{fill:#FFFFFF;}
	.st1{font-family:'Circular-Medium';}
	.st2{font-size:13.1779px;}
</style>
<title>Group 2</title>
<desc>Created with Sketch.</desc>
<path class="st0" d="M10.6,24c-0.3,0-0.7-0.1-1-0.3L1,18.7c-0.6-0.3-1-1-1-1.6V7c0-0.7,0.4-1.3,1-1.6l8.7-5v0c0.6-0.3,1.3-0.3,1.9,0
	l8.7,5c0.6,0.3,1,1,1,1.6v10.1c0,0.7-0.4,1.3-1,1.6l-8.7,5C11.3,23.9,11,24,10.6,24z M10.6,1.4c-0.1,0-0.2,0-0.3,0.1v0l-8.7,5
	C1.5,6.6,1.4,6.8,1.4,7v10.1c0,0.2,0.1,0.4,0.3,0.5l8.7,5.1c0.2,0.1,0.4,0.1,0.5,0l8.7-5c0.2-0.1,0.3-0.3,0.3-0.5V7
	c0-0.2-0.1-0.4-0.3-0.5l-8.7-5C10.8,1.4,10.7,1.4,10.6,1.4z"/>
<text transform="matrix(1 0 0 1 3.8218 16.0459)" class="st0 st1 st2">Rs</text>
</svg>
