<?xml version="1.0" encoding="utf-8"?>
<!-- Generator: Adobe Illustrator 23.0.1, SVG Export Plug-In . SVG Version: 6.00 Build 0)  -->
<svg version="1.1" id="Layer_1" xmlns="http://www.w3.org/2000/svg" xmlns:xlink="http://www.w3.org/1999/xlink" x="0px" y="0px"
	 viewBox="0 0 21.3 24" style="enable-background:new 0 0 21.3 24;" xml:space="preserve">
<style type="text/css">
	.st0{fill:#FFFFFF;}
	.st1{enable-background:new    ;}
</style>
<title>Group 2</title>
<desc>Created with Sketch.</desc>
<path class="st0" d="M10.6,24c-0.3,0-0.7-0.1-1-0.3l-8.6-5c-0.6-0.3-1-1-1-1.6V7c0-0.7,0.4-1.3,1-1.6l8.7-5l0,0
	c0.6-0.3,1.3-0.3,1.9,0l8.7,5c0.6,0.3,1,1,1,1.6v10.1c0,0.7-0.4,1.3-1,1.6l-8.7,5C11.3,23.9,11,24,10.6,24z M10.6,1.4
	c-0.1,0-0.2,0-0.3,0.1l0,0l-8.7,5C1.5,6.6,1.4,6.8,1.4,7v10.1c0,0.2,0.1,0.4,0.3,0.5l8.7,5.1c0.2,0.1,0.4,0.1,0.5,0l8.7-5
	c0.2-0.1,0.3-0.3,0.3-0.5V7c0-0.2-0.1-0.4-0.3-0.5l-8.7-5C10.8,1.4,10.7,1.4,10.6,1.4z"/>
<g class="st1">
	<path class="st0" d="M7.7,12.4H6.5V16H4.9V6.7h3.6c0.4,0,0.9,0.1,1.2,0.2c0.4,0.1,0.7,0.3,0.9,0.6c0.3,0.3,0.4,0.6,0.6,0.9
		c0.1,0.3,0.2,0.7,0.2,1.1c0,0.7-0.2,1.2-0.6,1.7S10,12,9.3,12.2l2.1,3.8H9.7L7.7,12.4z M8.2,11c0.5,0,0.9-0.1,1.2-0.4
		c0.3-0.3,0.4-0.6,0.4-1c0-0.4-0.1-0.8-0.4-1C9.1,8.2,8.7,8.1,8.2,8.1H6.5V11H8.2z"/>
	<path class="st0" d="M13.7,13.9c0,0.3,0.1,0.5,0.4,0.8S14.6,15,15,15c0.3,0,0.6-0.1,0.7-0.2c0.2-0.1,0.2-0.3,0.2-0.5
		c0-0.2-0.1-0.3-0.2-0.4c-0.1-0.1-0.3-0.2-0.6-0.3l-0.9-0.2c-0.6-0.1-1-0.4-1.3-0.7c-0.3-0.3-0.4-0.7-0.4-1.2c0-0.3,0.1-0.5,0.2-0.8
		c0.1-0.2,0.3-0.5,0.5-0.7c0.2-0.2,0.5-0.3,0.7-0.4c0.3-0.1,0.6-0.2,0.9-0.2c0.4,0,0.8,0.1,1.1,0.2c0.3,0.1,0.6,0.3,0.7,0.5
		c0.2,0.2,0.3,0.4,0.4,0.6c0.1,0.2,0.2,0.4,0.2,0.5l-1.3,0.4c0-0.1,0-0.2-0.1-0.3s-0.1-0.2-0.2-0.3s-0.2-0.2-0.4-0.2
		c-0.1-0.1-0.3-0.1-0.5-0.1c-0.3,0-0.5,0.1-0.7,0.2C14.1,11,14,11.2,14,11.4c0,0.2,0.1,0.3,0.2,0.4s0.3,0.2,0.5,0.2l1,0.2
		c0.6,0.1,1.1,0.4,1.4,0.7c0.3,0.3,0.5,0.8,0.5,1.2c0,0.2-0.1,0.5-0.2,0.7c-0.1,0.2-0.2,0.5-0.4,0.7c-0.2,0.2-0.5,0.4-0.8,0.5
		c-0.3,0.1-0.7,0.2-1.1,0.2c-0.5,0-0.9-0.1-1.2-0.2s-0.6-0.3-0.8-0.5s-0.4-0.4-0.5-0.6c-0.1-0.2-0.2-0.4-0.2-0.6L13.7,13.9z"/>
</g>
</svg>
