<?xml version="1.0" encoding="utf-8"?>
<!-- Generator: Adobe Illustrator 23.0.1, SVG Export Plug-In . SVG Version: 6.00 Build 0)  -->
<svg version="1.1" id="Layer_1" xmlns="http://www.w3.org/2000/svg" xmlns:xlink="http://www.w3.org/1999/xlink" x="0px" y="0px"
	 viewBox="0 0 23.9 24" style="enable-background:new 0 0 23.9 24;" xml:space="preserve">
<style type="text/css">
	.st0{fill:#FFFFFF;}
</style>
<title>Group 2</title>
<desc>Created with Sketch.</desc>
<path class="st0" d="M12,23.9c-6.6,0-12-5.3-12-12C0,5.4,5.3,0,12,0s12,5.3,12,12C24,18.5,18.6,23.9,12,23.9z M12,1.6
	C6.2,1.6,1.6,6.3,1.6,12c0,5.7,4.7,10.3,10.4,10.3c5.7,0,10.3-4.7,10.3-10.4C22.3,6.2,17.7,1.6,12,1.6z"/>
<g>
	<path class="st0" d="M2.4,12.8c0.3,3.9,3,6.8,5.9,8c0.5,0,2.2,0,4.1-1.5C8,19,4.3,16.4,2.4,12.8z"/>
	<path class="st0" d="M13.1,18.7c1.2-1.2,2.1-2.9,2.1-4.4c-6,1.4-11-4.5-8.9-10.2c-2.2,1.6-3.7,4.1-3.9,6.9
		C4.1,15.5,8.3,18.6,13.1,18.7z"/>
</g>
<path class="st0" d="M20.5,7.5c-2.9-2-9.4-0.7-11.5,3.2c1.1-0.7,4.7-0.5,6.3,1.9c1.6,2.7-1.1,7.7-5.6,8.8c0.7,0.2,1.5,0.3,2.2,0.3
	c5.3,0,9.6-4.3,9.6-9.7C21.6,10.3,21.2,8.8,20.5,7.5z M17.9,9.7l0.5,1.4l-1.2-0.9l-1.2,0.9l0.5-1.4l-1.2-0.9l1.5,0l0.5-1.4l0.5,1.4
	l1.5,0L17.9,9.7z"/>
</svg>
