<?xml version="1.0" encoding="utf-8"?>
<!-- Generator: Adobe Illustrator 23.0.1, SVG Export Plug-In . SVG Version: 6.00 Build 0)  -->
<svg version="1.1" id="Layer_1" xmlns="http://www.w3.org/2000/svg" xmlns:xlink="http://www.w3.org/1999/xlink" x="0px" y="0px"
	 viewBox="0 0 23.8 24" style="enable-background:new 0 0 23.8 24;" xml:space="preserve">
<style type="text/css">
	.st0{fill:#FFFFFF;}
</style>
<g>
	<title>Group 2</title>
	<desc>Created with Sketch.</desc>
	<path class="st0" d="M11.8,24c-6.6,0-12-5.4-12-12c0-6.6,5.4-12,12-12s12,5.4,12,12C23.8,18.6,18.4,24,11.8,24z M11.8,1.6
		C6.1,1.6,1.4,6.3,1.4,12c0,5.7,4.7,10.4,10.4,10.4c5.7,0,10.4-4.7,10.4-10.4C22.2,6.3,17.5,1.6,11.8,1.6z"/>
	<g>
		<path class="st0" d="M2.2,12.8c0.3,4,3,6.8,5.9,8.1c0.5,0,2.2,0,4.1-1.4C7.8,19.1,4.1,16.5,2.2,12.8z"/>
		<path class="st0" d="M12.9,18.8c1.2-1.2,2.1-2.9,2.1-4.4C9,15.8,3.9,9.9,6.1,4.2c-2.2,1.6-3.7,4.1-3.9,7
			C3.9,15.6,8.1,18.6,12.9,18.8z"/>
	</g>
	<path class="st0" d="M20.4,7.5c-2.9-2-9.5-0.7-11.5,3.2c1.1-0.7,4.7-0.5,6.3,1.9c1.6,2.7-1.1,7.7-5.6,8.8c0.7,0.2,1.5,0.3,2.2,0.3
		c5.3,0,9.7-4.3,9.7-9.7C21.5,10.4,21.1,8.8,20.4,7.5z M17.7,9.8l0.5,1.4L17,10.3l-1.2,0.9l0.5-1.4L15,8.9h1.5L17,7.5l0.5,1.4h1.5
		L17.7,9.8z"/>
</g>
</svg>
