<svg id="Layer_1" data-name="Layer 1" xmlns="http://www.w3.org/2000/svg" viewBox="0 0 23.87 24"><defs><style>.cls-1{fill:#fff;}</style></defs><title>logo-white</title><path class="cls-1" d="M12,23.93a12,12,0,1,1,12-12A12,12,0,0,1,12,23.93ZM12,1.6A10.35,10.35,0,1,0,22.32,11.93,10.37,10.37,0,0,0,12,1.6Z"/><path class="cls-1" d="M2.36,12.81a9.68,9.68,0,0,0,5.87,8,7,7,0,0,0,4.06-1.46A12.54,12.54,0,0,1,2.36,12.81Z"/><path class="cls-1" d="M13.06,18.73a6.44,6.44,0,0,0,2.07-4.37A7.67,7.67,0,0,1,6.25,4.18a9.68,9.68,0,0,0-3.89,7A11.9,11.9,0,0,0,13.06,18.73Z"/><path class="cls-1" d="M20.51,7.45c-2.87-2-9.45-.72-11.46,3.22a5.53,5.53,0,0,1,6.29,1.89c1.64,2.71-1.07,7.73-5.59,8.78A9.22,9.22,0,0,0,12,21.6,9.64,9.64,0,0,0,20.51,7.45ZM17.87,9.71l.46,1.42-1.2-.88-1.2.88.45-1.42-1.2-.87h1.49l.45-1.42.47,1.42h1.48Z"/></svg>