<?xml version="1.0" encoding="utf-8"?>
<!-- Generator: Adobe Illustrator 23.0.1, SVG Export Plug-In . SVG Version: 6.00 Build 0)  -->
<svg version="1.1" id="Layer_1" xmlns="http://www.w3.org/2000/svg" xmlns:xlink="http://www.w3.org/1999/xlink" x="0px" y="0px"
	 viewBox="0 0 23.9 24" style="enable-background:new 0 0 23.9 24;" xml:space="preserve">
<style type="text/css">
	.st0{fill:#FFFFFF;}
</style>
<path class="st0" d="M12,23.9c-6.6,0-12-5.4-12-12s5.4-12,12-12s12,5.4,12,12S18.6,23.9,12,23.9z M12,1.6C6.3,1.6,1.6,6.2,1.6,11.9
	c0,5.7,4.6,10.4,10.3,10.4S22.3,17.7,22.3,12c0,0,0,0,0,0C22.3,6.2,17.7,1.6,12,1.6z"/>
<path class="st0" d="M2.4,12.8c0.3,3.5,2.6,6.6,5.9,8c1.5,0,2.9-0.6,4.1-1.5C8.1,19,4.4,16.5,2.4,12.8z"/>
<path class="st0" d="M13.1,18.7c1.2-1.1,2-2.7,2.1-4.4c-4.1,0.9-8.2-1.6-9.2-5.8c-0.3-1.5-0.2-3,0.3-4.4c-2.2,1.7-3.7,4.2-3.9,7
	C4.1,15.6,8.3,18.6,13.1,18.7z"/>
<path class="st0" d="M20.5,7.4c-2.9-2-9.4-0.7-11.5,3.2c2.3-0.8,4.8-0.1,6.3,1.9c1.6,2.7-1.1,7.7-5.6,8.8c0.7,0.2,1.5,0.3,2.2,0.3
	c5.3,0,9.6-4.3,9.6-9.6C21.6,10.4,21.2,8.8,20.5,7.4z M17.9,9.7l0.5,1.4l-1.2-0.9l-1.2,0.9l0.4-1.4l-1.2-0.9h1.5l0.5-1.4l0.5,1.4
	h1.5L17.9,9.7z"/>
</svg>
